<?xml version="1.0" encoding="utf-8"?>
<!-- Generator: Adobe Illustrator 26.5.0, SVG Export Plug-In . SVG Version: 6.00 Build 0)  -->
<svg version="1.1" id="Calque_1" xmlns="http://www.w3.org/2000/svg" xmlns:xlink="http://www.w3.org/1999/xlink" x="0px" y="0px"
	 viewBox="0 0 315 315" style="enable-background:new 0 0 315 315;" xml:space="preserve">
<style type="text/css">
	.st0{fill:none;}
	.st1{fill:#75B340;}
	.st2{fill:#9BDB40;}
	.st3{fill:#006837;}
</style>
<g id="a">
</g>
<g id="b">
	<g id="c">
		<rect y="0" class="st0" width="315" height="315"/>
	</g>
</g>
<g>
	<path class="st1" d="M34.8,158.8l73.8,25.9L285,32.1L34.2,145.6C28.4,148.2,28.7,156.6,34.8,158.8z"/>
	<path class="st2" d="M129.2,282.8l-20.6-98.1c0,0,0-0.1,0-0.1L284.3,32.7c0.1-0.1,0.2,0,0.1,0.1L151.5,205.8c0,0,0,0,0,0l-22.1,77
		C129.3,282.9,129.2,282.9,129.2,282.8L129.2,282.8z"/>
	<path class="st1" d="M220.4,267.2l-68.9-61.4L285,32.1L232,263.5C230.8,268.8,224.4,270.8,220.4,267.2L220.4,267.2z"/>
	<path class="st3" d="M170.5,222.8l-41,60.1c0,0-0.1,0-0.1,0l22.1-77c0,0,0.1-0.1,0.1,0L170.5,222.8
		C170.5,222.7,170.5,222.8,170.5,222.8L170.5,222.8z"/>
</g>
</svg>
