<?xml version="1.0" encoding="UTF-8"?><svg xmlns="http://www.w3.org/2000/svg" viewBox="0 0 731.6 206.4"><defs><style>.d{fill:#006837;}.e{fill:#a7a8aa;}.f{fill:#9bdb40;}.g{fill:#4c4c4e;}.h{fill:#76b442;}</style></defs><g id="a"/><g id="b"><g id="c"><g><g><path class="h" d="M3.64,110.71l56.82,19.94L196.08,13.35,3.2,100.61c-4.48,2.03-4.19,8.48,.44,10.1Z"/><polygon class="f" points="76.34 206.4 60.46 130.64 196.08 13.35 93.45 146.89 76.34 206.4"/><path class="h" d="M146.4,194.12l-52.95-47.23L196.08,13.35l-40.7,177.9c-.93,4.06-5.87,5.64-8.98,2.87Z"/><polygon class="d" points="108.08 159.94 76.34 206.4 93.45 146.89 108.08 159.94"/></g><g><path class="h" d="M585.52,187.34c-10.8,0-19.57-8.77-19.57-19.58s8.77-19.56,19.57-19.56,19.57,8.76,19.57,19.56-8.76,19.58-19.57,19.58Z"/><path class="h" d="M585.52,130.45c-8.65,0-15.66-7.01-15.66-15.66s7.01-15.65,15.66-15.65,15.66,7.01,15.66,15.65-7.01,15.66-15.66,15.66Z"/><path class="h" d="M585.52,76.66c-6.92,0-12.52-5.61-12.52-12.52s5.61-12.53,12.52-12.53,12.52,5.62,12.52,12.53-5.59,12.52-12.52,12.52Z"/><path class="h" d="M652.3,130.45c-8.65,0-15.66-7.01-15.66-15.66s7-15.65,15.66-15.65,15.65,7.01,15.65,15.65-7,15.66-15.65,15.66Z"/><path class="h" d="M652.3,76.66c-6.92,0-12.53-5.61-12.53-12.52s5.62-12.53,12.53-12.53,12.52,5.62,12.52,12.53-5.6,12.52-12.52,12.52Z"/><path class="h" d="M652.3,20.04c-5.54,0-10.03-4.48-10.03-10.01s4.49-10.02,10.03-10.02,10.01,4.49,10.01,10.02-4.48,10.01-10.01,10.01Z"/><path class="h" d="M719.08,76.66c-6.92,0-12.53-5.61-12.53-12.52s5.61-12.53,12.53-12.53,12.52,5.62,12.52,12.53-5.6,12.52-12.52,12.52Z"/></g><g><path class="g" d="M332.18,129.71c0,1.07-.53,1.6-1.6,1.6-.77,0-1.93-.06-3.48-.19-1.56-.13-2.72-.19-3.48-.19s-1.94,.06-3.51,.19c-1.58,.13-2.75,.19-3.51,.19-1.07,0-1.6-.7-1.6-2.11,0-5.41,.17-13.53,.51-24.35,.34-10.82,.51-18.94,.51-24.35,0-.81-.17-1.21-.51-1.21-.38,0-.68,.24-.89,.7-2.17,4.64-7.31,17.04-15.4,37.19-1.32,3.88-3.22,8.71-5.69,14.51-.3,.55-1.83,.83-4.6,.83-4.01,0-6.22-.36-6.65-1.09-1.45-3.45-3.51-8.29-6.2-14.51-3.54-8.44-8.97-21-16.3-37.7-.13-.3-.41-.6-.83-.89-.34,.26-.51,.72-.51,1.41,0,5.5,.1,13.74,.29,24.73,.19,10.99,.29,19.23,.29,24.73,0,1.41-.53,2.11-1.6,2.11-.72,0-1.83-.06-3.32-.19-1.49-.13-2.6-.19-3.32-.19-.77,0-1.91,.06-3.42,.19-1.51,.13-2.65,.19-3.42,.19-1.07,0-1.6-.4-1.6-1.21,0-4.73,.22-11.81,.67-21.25,.45-9.44,.67-16.52,.67-21.25s-.22-12.26-.67-22.08c-.45-9.82-.67-17.18-.67-22.08,0-.81,.49-1.28,1.47-1.41,5.79-.77,10.16-1.15,13.1-1.15,.42,0,1.02,.87,1.79,2.62,10.31,22.66,19.17,42.9,26.58,60.71,1.75,4.18,2.79,6.26,3.13,6.26,.43,0,1.34-1.7,2.75-5.11,5.79-13.8,13.82-34.29,24.09-61.47,.64-1.66,1.34-2.49,2.11-2.49,1.45,0,3.63,.09,6.55,.26,2.92,.17,5.1,.26,6.55,.26,1.06,0,1.6,.51,1.6,1.53,0,4.9-.16,12.26-.48,22.08-.32,9.82-.48,17.18-.48,22.08s.18,11.72,.54,21.09c.36,9.37,.54,16.38,.54,21.02Z"/><path class="g" d="M406.24,118.46c0,.68-.17,1.66-.51,2.94-.38,1.62-.62,2.6-.7,2.94-.13,1.53-.43,3.77-.89,6.71-.21,.77-.77,1.15-1.66,1.15-.43,0-1.24-.09-2.43-.26-5.24-.77-13.36-1.15-24.35-1.15-3.11,0-7.8,.09-14.06,.26-6.26,.17-10.95,.26-14.06,.26-1.41,0-2.11-.62-2.11-1.85,0-4.77,.27-11.94,.8-21.5,.53-9.56,.8-16.73,.8-21.5s-.26-13.91-.77-27.16c-.09-3.41-.32-8.5-.7-15.27l-.06-.89c-.04-.98,.51-1.47,1.66-1.47,2.98,0,7.46,.09,13.42,.26,5.96,.17,10.44,.26,13.42,.26s7.12-.08,12.81-.26c5.69-.17,9.96-.26,12.81-.26,2,0,3.09,.62,3.26,1.85,.89,5.62,1.34,9.12,1.34,10.48,0,.98-.47,1.47-1.41,1.47-3.62,0-9.11-.2-16.45-.61-7.35-.41-12.88-.61-16.58-.61-3.49,0-5.7,.47-6.61,1.41-.92,.94-1.37,3.26-1.37,6.97v9.52c0,2.6,.06,4.11,.19,4.54,.38,1.32,1.49,1.98,3.32,1.98,.51,0,1.24-.02,2.17-.06h2.17c8.35,0,15.85-.15,22.49-.45,2.6-.09,5.67-.3,9.2-.64,.89-.08,1.34,.3,1.34,1.15,0,1.36-.16,3.45-.48,6.26s-.48,4.92-.48,6.33c0,.77-.64,1.15-1.92,1.15-.51,0-2.41-.15-5.69-.45-2.39-.26-7.75-.38-16.1-.38-7.03,0-11.48,.09-13.36,.26-1.7,.13-2.68,1.02-2.94,2.68,.04-.3,.06,1.34,.06,4.92v9.46c0,4.43,.68,7.2,2.05,8.31,1.06,.89,3.73,1.34,7.99,1.34l7.03-.06c2.98,0,11.35-.51,25.11-1.53l.96-.06c.85-.09,1.28,.45,1.28,1.6Z"/><path class="g" d="M505.99,129.71c0,1.07-.53,1.6-1.6,1.6-.77,0-1.93-.06-3.48-.19-1.56-.13-2.72-.19-3.48-.19s-1.94,.06-3.51,.19c-1.58,.13-2.75,.19-3.51,.19-1.07,0-1.6-.7-1.6-2.11,0-5.41,.17-13.53,.51-24.35,.34-10.82,.51-18.94,.51-24.35,0-.81-.17-1.21-.51-1.21-.38,0-.68,.24-.89,.7-2.17,4.64-7.31,17.04-15.4,37.19-1.32,3.88-3.22,8.71-5.69,14.51-.3,.55-1.83,.83-4.6,.83-4.01,0-6.22-.36-6.65-1.09-1.45-3.45-3.51-8.29-6.2-14.51-3.54-8.44-8.97-21-16.29-37.7-.13-.3-.41-.6-.83-.89-.34,.26-.51,.72-.51,1.41,0,5.5,.1,13.74,.29,24.73,.19,10.99,.29,19.23,.29,24.73,0,1.41-.53,2.11-1.6,2.11-.72,0-1.83-.06-3.32-.19-1.49-.13-2.6-.19-3.32-.19-.77,0-1.91,.06-3.42,.19-1.51,.13-2.65,.19-3.42,.19-1.07,0-1.6-.4-1.6-1.21,0-4.73,.22-11.81,.67-21.25,.45-9.44,.67-16.52,.67-21.25s-.22-12.26-.67-22.08c-.45-9.82-.67-17.18-.67-22.08,0-.81,.49-1.28,1.47-1.41,5.79-.77,10.16-1.15,13.1-1.15,.43,0,1.02,.87,1.79,2.62,10.31,22.66,19.17,42.9,26.58,60.71,1.75,4.18,2.79,6.26,3.13,6.26,.42,0,1.34-1.7,2.75-5.11,5.79-13.8,13.82-34.29,24.09-61.47,.64-1.66,1.34-2.49,2.11-2.49,1.45,0,3.63,.09,6.55,.26,2.92,.17,5.1,.26,6.55,.26,1.06,0,1.6,.51,1.6,1.53,0,4.9-.16,12.26-.48,22.08-.32,9.82-.48,17.18-.48,22.08s.18,11.72,.54,21.09c.36,9.37,.54,16.38,.54,21.02Z"/></g><g><path class="e" d="M329.76,159.1c0,.47-.24,1.51-.74,3.13-.49,1.62-.83,2.43-1.02,2.43-.96-.43-1.92-.85-2.89-1.28-.97-.43-2.03-.64-3.18-.64-2.62,0-4.8,.97-6.55,2.91-1.75,1.94-2.62,4.23-2.62,6.87s.87,4.85,2.62,6.74c1.79,1.96,3.97,2.94,6.55,2.94,1.43,0,2.83-.35,4.22-1.05,1.38-.7,1.99-1.05,1.82-1.05,.28,0,.59,.89,.93,2.68,.32,1.62,.48,2.74,.48,3.36,0,.66-1.25,1.31-3.74,1.95-2.09,.53-3.63,.8-4.63,.8-4.39,0-8.09-1.64-11.12-4.92-2.96-3.19-4.44-7.01-4.44-11.44s1.45-8.35,4.34-11.5c2.98-3.24,6.7-4.86,11.15-4.86,2.98,0,5.71,.76,8.18,2.27,.43,.26,.64,.48,.64,.67Z"/><path class="e" d="M362.7,172.52c0,4.45-1.46,8.25-4.38,11.41-2.98,3.26-6.68,4.89-11.09,4.89s-8.14-1.62-11.12-4.86c-2.92-3.13-4.38-6.92-4.38-11.37s1.46-8.24,4.38-11.37c3-3.19,6.71-4.79,11.12-4.79s8.07,1.6,11.06,4.79c2.94,3.11,4.41,6.88,4.41,11.31Zm-6.74,.06c0-2.6-.8-4.81-2.4-6.65-1.66-1.94-3.77-2.91-6.33-2.91s-4.68,.96-6.36,2.88c-1.6,1.85-2.4,4.08-2.4,6.68s.81,4.77,2.43,6.65c1.7,1.98,3.81,2.97,6.33,2.97s4.64-.99,6.33-2.97c1.6-1.87,2.4-4.09,2.4-6.65Z"/><path class="e" d="M396.79,159.1c0,1.55-.06,3.9-.19,7.04-.13,3.14-.19,5.5-.19,7.08s.05,3.88,.14,6.98c.1,3.1,.14,5.43,.14,6.98,0,.43-.2,.7-.61,.83-.17,.04-2.33,.06-6.49,.06-.26,0-.41-.8-.46-2.4-.05-1.6-.18-2.4-.37-2.4-.11,0-.27,.1-.48,.29-3.56,3.09-7.07,4.63-10.54,4.63-4.71,0-7.82-1.7-9.33-5.11-.94-2.11-1.41-5.9-1.41-11.37,0-4.94,.39-9.13,1.18-12.56,.19-.83,.54-1.25,1.05-1.25,.62,0,1.54,.01,2.78,.03,1.24,.02,2.16,.03,2.78,.03,.43,0,.64,.23,.64,.7,0,.83-.14,2.22-.42,4.15-.3,2.07-.46,3.53-.48,4.38-.06,1.28-.1,2.68-.1,4.22,0,3.73,.27,6.23,.8,7.51,.92,2.3,2.95,3.45,6.1,3.45,1.34,0,2.93-.66,4.76-1.98,1.94-1.38,2.94-2.72,3-3.99,.11-1.6,.16-7.22,.16-16.87,0-1.04,.44-1.57,1.31-1.57h5.27c.62,0,.93,.37,.93,1.12Z"/><path class="e" d="M421.59,158.08c0,2.34-.16,4.47-.48,6.39-.06,.49-.28,.74-.64,.74-.45,0-1.12-.05-2.03-.14-.9-.1-1.59-.14-2.06-.14-2.68,0-4.4,.76-5.14,2.27-.45,.92-.67,2.82-.67,5.72v3.51c0,1.19,.05,3,.14,5.43s.14,4.24,.14,5.43c0,.57-.24,.86-.74,.86-.66,0-1.66-.01-3-.03-1.34-.02-2.34-.03-3-.03-.49,0-.74-.27-.74-.8,0-1.73,.03-4.32,.08-7.8,.05-3.47,.08-6.08,.08-7.83,0-5.26-.49-9.49-1.47-12.68-.04-.17-.06-.3-.06-.38,0-.26,.14-.44,.42-.54,.79-.09,1.9-.21,3.32-.38,2.3-.43,3.36-.64,3.19-.64,.34,0,.56,.63,.67,1.89s.3,1.88,.57,1.88c.04,0,.1-.02,.16-.06,.87-.55,1.75-1.11,2.62-1.66,.96-.57,1.94-1,2.94-1.28,.83-.26,1.9-.38,3.19-.38,1.66,0,2.49,.22,2.49,.67Z"/><path class="e" d="M443.38,158.08c0,2.34-.16,4.47-.48,6.39-.06,.49-.28,.74-.64,.74-.45,0-1.12-.05-2.03-.14-.9-.1-1.59-.14-2.06-.14-2.68,0-4.4,.76-5.14,2.27-.45,.92-.67,2.82-.67,5.72v3.51c0,1.19,.05,3,.14,5.43s.14,4.24,.14,5.43c0,.57-.24,.86-.74,.86-.66,0-1.66-.01-3-.03-1.34-.02-2.34-.03-3-.03-.49,0-.74-.27-.74-.8,0-1.73,.03-4.32,.08-7.8,.05-3.47,.08-6.08,.08-7.83,0-5.26-.49-9.49-1.47-12.68-.04-.17-.06-.3-.06-.38,0-.26,.14-.44,.42-.54,.79-.09,1.9-.21,3.32-.38,2.3-.43,3.36-.64,3.19-.64,.34,0,.56,.63,.67,1.89s.3,1.88,.57,1.88c.04,0,.1-.02,.16-.06,.87-.55,1.75-1.11,2.62-1.66,.96-.57,1.94-1,2.94-1.28,.83-.26,1.9-.38,3.19-.38,1.66,0,2.49,.22,2.49,.67Z"/><path class="e" d="M455.2,149.87c0,2.62-1.46,3.93-4.38,3.93s-4.44-1.31-4.44-3.93c0-1.17,.46-2.14,1.37-2.91,.85-.72,1.87-1.09,3.07-1.09s2.22,.37,3.08,1.12,1.29,1.7,1.29,2.88Zm-.22,8.66c0,1.64-.1,4.12-.3,7.43s-.3,5.8-.3,7.46c0,1.55,.03,3.88,.1,6.98,.06,3.1,.1,5.42,.1,6.95,0,.45-.19,.67-.58,.67h-6.23c-.45,0-.67-.44-.67-1.31,0-1.47,.04-3.68,.11-6.63,.07-2.95,.11-5.17,.11-6.66,0-1.66-.12-4.15-.37-7.48-.24-3.32-.37-5.81-.37-7.48,0-.36,.22-.54,.67-.54,.38,0,.97,.05,1.77,.16s1.4,.16,1.8,.16,1.01-.05,1.81-.16,1.4-.16,1.8-.16c.36,0,.54,.2,.54,.61Z"/><path class="e" d="M488.36,170.93c0,1.58-.68,2.63-2.05,3.16-.92,.34-7.51,.97-19.78,1.88,.28,1.87,1.31,3.47,3.1,4.79,1.7,1.26,3.54,1.88,5.5,1.88,3.37,0,6.45-1.09,9.27-3.26,.34-.28,.68-.55,1.02-.83,.17,0,.28,.02,.34,.06,.05,.04,.45,.78,1.2,2.22,.74,1.44,1.12,2.21,1.12,2.32,0,.13-.17,.37-.51,.74-3.13,3.32-7.15,4.98-12.05,4.98s-8.88-1.47-11.82-4.43c-2.94-2.95-4.41-6.89-4.41-11.81,0-4.39,1.41-8.21,4.22-11.47,2.96-3.39,6.59-5.08,10.89-5.08,4.01,0,7.35,1.47,10.03,4.41,2.62,2.85,3.93,6.33,3.93,10.42Zm-7.6-1.95c0-1.77-.7-3.33-2.09-4.7-1.39-1.36-2.97-2.05-4.71-2.05-1.96,0-3.7,.79-5.22,2.36-1.52,1.58-2.28,3.34-2.28,5.3,0,.45,.38,.67,1.15,.67,3.15,0,6.92-.32,11.31-.96,1.24-.17,1.85-.38,1.85-.64Z"/><path class="e" d="M511.11,158.08c0,2.34-.16,4.47-.48,6.39-.06,.49-.28,.74-.64,.74-.45,0-1.12-.05-2.03-.14-.91-.1-1.59-.14-2.06-.14-2.68,0-4.4,.76-5.14,2.27-.45,.92-.67,2.82-.67,5.72v3.51c0,1.19,.05,3,.14,5.43,.1,2.43,.14,4.24,.14,5.43,0,.57-.24,.86-.73,.86-.66,0-1.66-.01-3-.03-1.34-.02-2.34-.03-3-.03-.49,0-.73-.27-.73-.8,0-1.73,.03-4.32,.08-7.8s.08-6.08,.08-7.83c0-5.26-.49-9.49-1.47-12.68-.04-.17-.06-.3-.06-.38,0-.26,.14-.44,.42-.54,.79-.09,1.9-.21,3.32-.38,2.3-.43,3.37-.64,3.19-.64,.34,0,.56,.63,.67,1.89,.11,1.26,.3,1.88,.57,1.88,.04,0,.1-.02,.16-.06,.87-.55,1.75-1.11,2.62-1.66,.96-.57,1.94-1,2.94-1.28,.83-.26,1.9-.38,3.19-.38,1.66,0,2.49,.22,2.49,.67Z"/></g></g></g></g></svg>